<svg width="36" height="36" viewBox="0 0 36 36" fill="none" xmlns="http://www.w3.org/2000/svg">
<path d="M17.3469 0.261725C15.7066 0.0316473 14.0367 0.328522 12.5672 1.10782L7.075 4.03946C5.61289 4.81876 4.43281 6.04337 3.70546 7.53516L0.981636 13.1461C0.254292 14.6379 0.0167918 16.3301 0.306245 17.9629L1.38242 24.1082C1.67187 25.7484 2.46601 27.2477 3.66093 28.4055L8.13632 32.7399C9.33125 33.8977 10.8527 34.6399 12.493 34.8699L18.6531 35.7383C20.2934 35.9684 21.9633 35.6715 23.4328 34.8922L28.925 31.9606C30.3871 31.1813 31.5672 29.9566 32.2945 28.4574L35.0184 22.8539C35.7457 21.3621 35.9832 19.6699 35.6937 18.0371L34.6101 11.8918C34.3207 10.2516 33.5266 8.75235 32.3316 7.59454L27.8637 3.26758C26.6687 2.10977 25.1473 1.36758 23.507 1.13751L17.3469 0.261725ZM14.4375 9.68751C15.0674 9.68751 15.6715 9.93773 16.1169 10.3831C16.5623 10.8285 16.8125 11.4326 16.8125 12.0625C16.8125 12.6924 16.5623 13.2965 16.1169 13.7419C15.6715 14.1873 15.0674 14.4375 14.4375 14.4375C13.8076 14.4375 13.2035 14.1873 12.7581 13.7419C12.3127 13.2965 12.0625 12.6924 12.0625 12.0625C12.0625 11.4326 12.3127 10.8285 12.7581 10.3831C13.2035 9.93773 13.8076 9.68751 14.4375 9.68751ZM9.68749 23.9375C9.68749 23.3076 9.93772 22.7035 10.3831 22.2581C10.8285 21.8127 11.4326 21.5625 12.0625 21.5625C12.6924 21.5625 13.2965 21.8127 13.7419 22.2581C14.1873 22.7035 14.4375 23.3076 14.4375 23.9375C14.4375 24.5674 14.1873 25.1715 13.7419 25.6169C13.2965 26.0623 12.6924 26.3125 12.0625 26.3125C11.4326 26.3125 10.8285 26.0623 10.3831 25.6169C9.93772 25.1715 9.68749 24.5674 9.68749 23.9375ZM26.3125 19.1875C26.9424 19.1875 27.5465 19.4377 27.9919 19.8831C28.4373 20.3285 28.6875 20.9326 28.6875 21.5625C28.6875 22.1924 28.4373 22.7965 27.9919 23.2419C27.5465 23.6873 26.9424 23.9375 26.3125 23.9375C25.6826 23.9375 25.0785 23.6873 24.6331 23.2419C24.1877 22.7965 23.9375 22.1924 23.9375 21.5625C23.9375 20.9326 24.1877 20.3285 24.6331 19.8831C25.0785 19.4377 25.6826 19.1875 26.3125 19.1875Z" fill="white"/>
</svg>
